<?xml version="1.0" standalone="no"?>
<!DOCTYPE svg PUBLIC "-//W3C//DTD SVG 20010904//EN"
 "http://www.w3.org/TR/2001/REC-SVG-20010904/DTD/svg10.dtd">
<svg version="1.0" xmlns="http://www.w3.org/2000/svg"
 width="1104.000000pt" height="1280.000000pt" viewBox="0 0 1104.000000 1280.000000"
 preserveAspectRatio="xMidYMid meet">
<metadata>
Created by potrace 1.15, written by Peter Selinger 2001-2017
</metadata>
<g transform="translate(0.000000,1280.000000) scale(0.100000,-0.100000)"
fill="#000000" stroke="none">
<path d="M4987 12782 c-10 -11 -23 -47 -30 -81 l-13 -61 -44 32 c-49 37 -133
68 -161 61 -32 -9 -33 -41 -3 -84 15 -22 39 -48 53 -59 25 -18 25 -19 5 -20
-29 0 -48 -25 -40 -53 15 -63 188 -183 252 -175 38 4 44 45 14 88 -21 29 -21
30 -2 30 14 0 21 -9 26 -32 10 -55 51 -131 94 -178 30 -32 42 -53 42 -75 0
-49 31 -100 60 -100 20 0 30 9 47 45 11 25 24 44 27 43 19 -8 30 3 54 55 23
48 27 70 26 143 0 62 3 86 12 82 12 -4 44 22 44 36 0 15 -55 89 -86 115 -45
37 -127 76 -162 76 -73 0 -62 -62 24 -138 l54 -47 -12 -37 c-7 -25 -17 -38
-29 -38 -10 0 -21 -5 -24 -10 -4 -6 -19 6 -34 28 -32 43 -71 72 -100 72 -18 0
-18 3 -9 37 17 61 5 198 -19 231 -25 34 -44 38 -66 14z m-13 -287 c4 -13 2
-14 -14 -5 -23 13 -26 20 -6 20 8 0 16 -7 20 -15z"/>
<path d="M4103 12709 c-104 -33 -131 -99 -47 -115 107 -20 276 32 282 87 2 19
-3 28 -23 37 -39 18 -142 13 -212 -9z"/>
<path d="M4344 12598 c-37 -71 -26 -255 16 -293 23 -21 43 -15 67 22 14 22 18
48 18 133 0 122 -17 170 -60 170 -17 0 -29 -9 -41 -32z"/>
<path d="M4538 12603 c-35 -40 -50 -175 -27 -256 9 -33 8 -41 -7 -51 -14 -11
-16 -23 -11 -63 7 -64 -12 -134 -41 -144 -27 -10 -43 -41 -52 -103 l-8 -51 -1
58 c-1 80 -19 144 -46 165 -16 13 -25 34 -30 72 -4 30 -12 66 -17 79 -5 13
-11 58 -13 99 -6 87 -30 146 -62 150 -29 4 -49 -28 -63 -105 -10 -59 -2 -166
15 -194 4 -6 8 -43 10 -82 l3 -72 -12 45 c-17 61 -51 111 -135 200 -98 102
-97 101 -110 158 -19 76 -31 84 -136 84 -114 -1 -285 -119 -244 -168 6 -8 21
-14 33 -14 17 -1 14 -5 -14 -20 -19 -11 -37 -19 -40 -20 -3 0 -6 23 -7 51 -3
59 -17 89 -42 89 -44 0 -87 -92 -98 -208 -5 -49 -12 -70 -30 -88 -12 -13 -23
-32 -23 -44 0 -26 -2 -26 -54 14 -38 28 -93 55 -153 72 -25 7 -12 29 18 31 17
1 50 13 73 27 53 31 143 126 152 160 7 31 -10 56 -38 56 -61 0 -219 -127 -233
-188 -4 -21 -12 -28 -27 -28 -11 1 -30 -11 -42 -27 -20 -27 -21 -41 -23 -235
-2 -215 5 -270 37 -302 24 -24 46 -17 68 24 13 24 17 58 18 161 0 72 1 145 2
163 l2 34 33 -28 c17 -15 59 -40 92 -55 52 -25 61 -33 65 -61 3 -19 0 -42 -8
-54 -12 -21 -7 -108 14 -220 5 -25 2 -32 -14 -36 -17 -5 -20 3 -30 69 -15 94
-34 133 -67 133 -45 0 -60 -47 -61 -195 -1 -162 -1 -158 -20 -151 -10 4 -26
-6 -46 -27 -46 -49 -54 -60 -67 -85 -10 -19 -15 -21 -27 -11 -16 13 -20 104
-4 114 14 9 12 47 -4 68 -10 13 -13 39 -9 96 6 89 -9 171 -37 196 -39 35 -79
-13 -87 -105 -5 -57 -8 -61 -27 -55 -12 3 -36 8 -53 12 -18 3 -33 9 -33 13 0
5 -18 30 -39 57 -45 57 -92 83 -116 63 -57 -47 60 -276 145 -283 19 -1 20 -5
13 -42 -4 -22 -8 -67 -8 -100 l1 -60 -63 62 c-35 35 -63 67 -63 72 0 5 7 14
15 21 35 29 -4 146 -73 219 -55 58 -82 69 -107 45 -13 -14 -16 -28 -11 -62 4
-28 2 -50 -5 -59 -8 -8 -9 -30 -4 -61 3 -26 6 -64 6 -85 -1 -20 3 -47 10 -58
22 -43 1 -27 -29 21 -20 33 -40 52 -58 56 -42 11 -57 -17 -51 -95 4 -47 1 -68
-9 -78 -8 -8 -14 -25 -14 -38 0 -44 40 -132 80 -178 47 -53 54 -103 19 -125
-36 -23 -21 -60 36 -92 28 -15 54 -26 58 -23 5 3 6 -17 2 -43 -12 -87 -12 -87
-56 -39 -46 50 -73 62 -94 45 -36 -30 0 -150 71 -236 30 -37 34 -49 34 -99 0
-107 35 -184 77 -168 20 8 42 56 50 109 5 39 8 43 16 28 6 -11 17 -25 25 -33
12 -12 11 -17 -9 -31 -44 -34 -9 -158 68 -238 21 -22 44 -41 51 -43 9 -3 11
-19 6 -63 -7 -56 -7 -57 -19 -29 -7 15 -27 46 -45 68 -59 74 -113 91 -126 40
-4 -17 -11 -21 -25 -18 -26 7 -69 -33 -69 -63 0 -48 42 -135 91 -188 27 -30
49 -60 49 -68 0 -7 9 -31 20 -53 28 -56 25 -62 -13 -21 -64 68 -127 54 -127
-29 0 -22 5 -46 12 -53 50 -50 -133 73 -257 174 -85 68 -91 76 -101 122 l-10
50 38 -25 c55 -34 85 -45 148 -54 30 -4 68 -11 84 -15 19 -5 31 -2 37 7 29 47
-20 179 -91 243 -61 55 -100 45 -100 -26 l0 -37 -41 14 c-23 8 -54 15 -70 15
-33 0 -62 -25 -55 -49 3 -10 -5 -23 -21 -35 -26 -19 -26 -19 -45 5 -53 66
-131 195 -158 261 -43 110 -54 169 -54 298 1 228 84 444 275 711 38 53 69 104
69 113 0 30 19 55 127 169 122 130 154 180 155 236 0 40 2 42 75 83 l75 43
-168 3 c-100 1 -171 7 -174 13 -5 6 -16 6 -34 -1 -15 -5 -55 -10 -89 -10 -152
0 -341 -58 -592 -180 -88 -43 -189 -88 -225 -100 -158 -54 -289 -147 -381
-270 -30 -39 -68 -91 -86 -113 -43 -55 -99 -203 -114 -297 -16 -102 -6 -421
16 -520 26 -117 154 -462 219 -590 36 -70 193 -268 296 -371 90 -92 116 -112
185 -143 44 -21 87 -41 95 -47 96 -60 111 -73 106 -86 -3 -8 -6 -21 -6 -28 0
-8 -6 -20 -14 -28 -36 -35 -135 -310 -166 -460 -11 -53 -130 -357 -149 -381
-26 -32 -233 -641 -270 -795 -66 -267 -76 -353 -76 -636 0 -212 3 -277 18
-350 10 -49 22 -153 27 -230 14 -234 121 -619 203 -734 l36 -50 -34 -29 c-18
-17 -43 -33 -55 -37 -17 -5 -20 -12 -15 -34 5 -24 -1 -30 -59 -69 -72 -47
-322 -279 -320 -296 1 -6 5 -18 9 -27 4 -12 -8 -29 -46 -60 -213 -179 -270
-242 -316 -344 -134 -302 -176 -412 -214 -560 -20 -78 -23 -114 -23 -275 0
-118 4 -204 13 -236 11 -44 10 -65 -5 -144 -14 -79 -16 -137 -11 -399 7 -355
15 -414 77 -529 46 -85 173 -242 196 -242 11 0 14 -24 14 -140 l0 -140 -34
-47 c-51 -72 -74 -135 -102 -273 -18 -86 -24 -144 -21 -185 l5 -60 -77 -79
c-44 -45 -68 -76 -56 -72 142 40 180 47 183 37 2 -6 10 -11 17 -11 8 0 28 -20
45 -45 36 -52 66 -75 97 -75 36 0 45 30 28 95 -15 55 -13 84 4 57 11 -19 48
-7 101 32 l45 32 35 -50 c46 -66 95 -100 122 -85 17 9 20 18 16 58 -3 25 -17
70 -31 100 -15 29 -27 54 -27 55 0 11 132 106 148 106 11 0 73 13 138 30 161
41 180 40 229 -10 23 -23 48 -40 62 -40 24 0 46 30 41 58 -3 15 8 17 101 17
l103 0 20 -50 c50 -126 161 -214 183 -144 11 33 -29 158 -55 174 -24 15 -6 25
43 25 64 0 146 -27 232 -75 51 -28 64 -40 69 -66 3 -18 5 -33 4 -34 -2 -1 -22
-13 -46 -27 l-42 -25 152 -46 c261 -78 418 -116 538 -127 63 -6 123 -16 133
-21 11 -6 24 -6 37 1 14 8 230 10 698 7 l677 -3 165 -48 165 -49 385 -9 c474
-11 398 -11 820 1 195 5 375 14 400 21 47 11 251 80 330 110 25 9 81 20 125
24 99 9 158 21 260 53 96 30 402 67 685 83 268 15 363 34 590 117 140 51 217
88 297 141 38 25 86 44 161 63 59 15 114 30 122 33 12 5 28 -19 68 -101 51
-105 52 -110 52 -196 0 -84 1 -87 19 -77 40 21 48 14 40 -38 -17 -104 -16
-104 69 -19 58 57 84 77 104 77 15 0 29 4 33 10 3 5 7 53 10 107 l4 97 33 12
c23 7 34 18 37 35 1 13 14 34 27 47 12 13 31 44 40 69 16 42 17 51 3 102 -14
54 -13 59 6 91 19 34 20 53 22 541 l3 506 36 79 c49 104 167 454 194 574 12
52 37 142 55 200 19 58 48 175 65 260 17 85 47 202 65 260 61 189 86 308 110
518 14 114 31 236 39 271 29 128 40 284 38 539 -2 269 -14 361 -67 529 -12 39
-19 75 -14 80 4 4 -1 44 -12 88 -11 44 -26 152 -33 240 -9 105 -21 179 -34
215 -11 30 -28 93 -37 140 -9 47 -27 118 -41 158 -13 40 -29 116 -35 168 -12
107 -43 207 -95 300 -21 38 -45 108 -64 184 l-30 123 27 31 c28 33 53 86 53
110 0 28 -36 38 -75 22 -38 -16 -41 -14 -46 29 -4 30 -3 30 143 90 81 33 180
81 220 106 61 39 250 135 323 164 19 8 19 9 -2 12 -21 4 -33 23 -15 23 4 0 32
32 62 71 32 41 80 88 115 112 174 119 214 198 195 384 -6 54 -17 121 -25 150
-28 95 -179 291 -322 416 -57 50 -103 95 -103 100 0 6 -41 48 -91 95 -50 48
-125 129 -167 182 -236 294 -308 348 -403 304 -69 -30 -64 -106 12 -224 22
-35 42 -75 44 -89 2 -14 13 -54 23 -89 l20 -63 -40 -26 c-23 -14 -79 -63 -126
-109 -47 -46 -91 -84 -99 -84 -9 0 -13 13 -13 41 0 32 6 46 25 61 31 24 47 81
46 167 -1 71 -12 123 -33 149 -7 8 -13 31 -13 51 0 33 -2 36 -32 39 -43 4
-117 -36 -173 -93 l-43 -44 -19 25 c-30 38 -56 31 -79 -21 -17 -38 -20 -64
-18 -168 3 -124 9 -147 38 -147 55 0 208 113 229 169 5 15 11 3 22 -45 l16
-64 -83 -31 -83 -31 -2 -172 c-2 -107 -6 -160 -11 -141 -17 66 -41 100 -69
100 -15 1 -30 4 -34 8 -11 11 -49 8 -62 -5 -15 -15 -15 -55 0 -98 10 -31 9
-34 -16 -53 -15 -10 -42 -40 -61 -65 -69 -89 -33 -138 65 -90 l50 25 0 -26 c0
-37 -65 -114 -130 -155 l-55 -35 -6 92 c-3 51 -11 102 -17 114 -17 30 -15 68
4 84 42 35 57 107 24 116 -11 3 -20 6 -20 7 0 1 10 22 23 47 19 39 22 57 20
162 l-2 117 22 -15 c30 -21 64 -19 78 6 22 42 -26 162 -91 224 -24 23 -29 35
-25 56 4 15 1 30 -4 34 -6 3 -11 17 -11 30 0 13 -11 37 -25 53 -41 49 -33 82
25 101 51 17 127 76 163 127 l31 45 27 -54 c36 -70 95 -127 132 -127 15 0 30
7 33 15 5 12 11 11 34 -6 15 -12 38 -19 51 -17 61 8 17 170 -67 248 -46 42
-74 50 -94 25 -12 -14 -15 -14 -30 0 -28 25 -73 24 -85 -2 -7 -16 -18 -23 -37
-23 -14 0 -34 -3 -43 -6 -11 -4 -3 11 19 41 47 61 47 98 -1 103 -37 4 -81 -17
-141 -66 l-44 -35 -37 37 c-20 20 -44 36 -54 36 -9 0 -25 17 -36 38 -19 38
-83 102 -101 102 -16 0 -40 -31 -40 -54 0 -34 29 -127 53 -166 30 -51 78 -100
99 -100 14 0 16 -4 8 -24 -5 -14 -10 -45 -11 -70 l-3 -46 -40 7 c-23 3 -53 14
-68 24 -14 11 -35 19 -46 19 -26 0 -19 36 9 43 36 10 23 54 -32 112 -28 30
-63 80 -78 112 -16 32 -40 72 -54 89 -33 39 -81 61 -100 45 -10 -8 -19 -4 -35
19 -20 26 -21 34 -11 80 6 28 9 71 7 95 -5 65 21 65 47 0 17 -41 25 -50 45
-50 51 0 84 133 61 247 -23 110 -83 117 -116 13 -6 -17 -9 -14 -26 20 -32 65
-71 115 -101 131 -15 8 -28 22 -28 32 0 22 -19 42 -38 42 -8 0 -27 -14 -43
-31 l-29 -31 0 29 c0 77 -64 84 -98 11 -12 -24 -24 -61 -29 -83 -7 -37 -8 -33
-14 43 -5 61 -12 91 -26 110 -49 65 -95 6 -101 -130 -4 -83 -6 -88 -27 -88
-40 0 -55 30 -55 109 0 66 2 75 25 93 48 38 83 220 55 292 -11 30 -50 36 -70
11 -11 -13 -18 -9 -54 30 -49 52 -81 59 -96 20 -17 -45 17 -158 66 -223 28
-36 28 -38 0 -44 -14 -2 -21 7 -31 39 -24 79 -82 160 -127 176 -10 4 -25 -1
-34 -10 -39 -39 19 -208 94 -275 40 -36 42 -41 42 -94 0 -75 18 -141 44 -162
33 -26 37 -48 16 -75 -63 -80 -37 -137 46 -102 28 12 40 13 48 4 8 -8 8 -13
-1 -16 -6 -2 -30 -18 -53 -34 l-41 -30 -10 30 c-14 40 -31 44 -71 18 -45 -30
-60 -68 -66 -155 -4 -64 -7 -72 -19 -59 -10 10 -15 43 -17 110 -2 95 -2 97 27
124 44 42 70 99 57 123 -12 23 -45 25 -80 5 -14 -8 -28 -14 -32 -15 -14 0 6
76 29 110 32 48 31 88 -3 96 -17 5 -23 11 -19 22 3 8 8 41 12 72 7 72 -10 128
-42 136 -17 4 -26 17 -35 51 -17 58 -79 154 -113 172 -21 11 -29 11 -41 2 -12
-10 -22 -4 -58 35 l-43 46 -6 97 c-6 112 -26 161 -64 161 -14 0 -29 -8 -35
-21 -19 -35 -51 -3 -67 66 -16 71 -37 105 -63 105 -27 0 -49 -37 -57 -96 -3
-27 -15 -61 -26 -76 -16 -21 -19 -36 -14 -70 3 -24 9 -51 12 -61 6 -15 4 -15
-22 -2 -15 8 -43 30 -62 50 -37 39 -103 80 -144 90 -24 6 -27 12 -27 49 0 22
-4 57 -9 76 l-10 35 17 -25 c72 -108 157 -133 155 -46 -1 32 1 35 17 26 29
-16 90 -12 96 5 25 65 -144 208 -246 208 -56 0 -73 -18 -67 -68 3 -22 8 -47
11 -56 6 -13 1 -15 -24 -11 -27 4 -32 0 -46 -34 -9 -21 -18 -62 -21 -92 l-6
-55 -21 29 c-36 49 -79 84 -106 84 -22 0 -27 6 -38 48 -6 26 -13 83 -15 127
-4 94 -29 158 -64 163 -29 4 -49 -28 -62 -102 -12 -64 0 -171 21 -206 20 -32
3 -33 -43 -2 -59 39 -101 54 -135 50 -26 -3 -29 -7 -29 -41 0 -44 -11 -49 -20
-8 -9 40 -41 68 -63 55 -25 -16 -42 -56 -49 -114 -5 -40 -8 -48 -19 -39 -13
11 -54 4 -54 -10 0 -4 -20 -29 -45 -56 -33 -37 -47 -63 -56 -102 -7 -32 -18
-53 -26 -53 -7 0 -18 -9 -25 -20 -18 -29 -24 -25 -26 18 -4 47 -32 106 -54
110 -40 8 -88 -95 -88 -190 0 -48 -4 -53 -34 -42 -21 8 -21 60 0 68 14 5 15
16 11 64 -4 31 -8 92 -11 134 -4 90 -30 151 -63 156 -14 2 -27 -4 -35 -17 -19
-31 -25 -26 -30 28 -6 58 -30 101 -57 101 -22 0 -58 -53 -67 -99 -4 -21 -16
-36 -37 -46 l-30 -15 9 68 c21 160 -3 277 -56 277 -31 0 -59 -51 -61 -110 -1
-22 -5 0 -10 49 -10 119 -50 175 -91 129z m-732 -179 c-8 -20 -52 -18 -61 3
-3 10 -1 19 4 21 6 2 21 12 33 22 23 18 23 18 26 -7 2 -13 1 -31 -2 -39z m830
-138 c-8 -51 -15 -56 -34 -26 -10 17 -10 26 3 50 8 16 15 37 16 47 0 15 2 15
11 -4 6 -13 8 -41 4 -67z m-791 -22 c16 -25 16 -27 -8 -53 -13 -14 -29 -34
-34 -44 -8 -16 -11 -16 -32 7 -19 20 -22 31 -16 65 6 39 12 44 61 50 7 0 19
-11 29 -25z m1869 -113 c9 -10 44 -31 77 -45 32 -15 59 -30 59 -34 0 -4 -17
-6 -38 -4 -82 8 -77 -54 10 -133 28 -25 54 -45 59 -45 5 0 1 -17 -8 -37 -10
-21 -18 -38 -18 -39 0 -1 -11 -4 -25 -7 -22 -5 -28 -2 -36 22 -11 28 -82 71
-118 71 -14 0 -16 3 -8 13 21 25 36 149 25 205 -11 56 -6 63 21 33z m-2264 -7
c0 -9 12 -38 26 -64 23 -42 24 -51 14 -88 -9 -35 -46 -79 -57 -68 -2 2 1 34 7
72 7 44 7 86 2 117 -5 26 -6 47 -1 47 5 0 9 -7 9 -16z m180 -30 c0 -20 -7 -17
-20 6 -9 16 -8 18 5 14 8 -4 15 -12 15 -20z m315 -79 l1 -75 -17 34 c-9 19
-27 49 -39 66 -25 36 -17 50 30 50 24 0 25 -2 25 -75z m828 16 c10 -21 9 -26
-13 -40 -14 -9 -41 -31 -61 -48 -20 -18 -39 -33 -42 -33 -4 0 -17 23 -30 50
-13 28 -22 50 -19 50 2 0 22 -10 44 -22 l40 -23 24 28 c13 16 24 38 24 51 0
26 13 44 18 24 2 -7 9 -24 15 -37z m1276 -75 c18 -17 42 -29 60 -30 l29 -1 -1
-62 c0 -52 -3 -63 -17 -63 -9 0 -28 -17 -42 -39 -24 -36 -25 -42 -18 -132 5
-52 13 -107 19 -122 17 -44 14 -47 -30 -32 -54 20 -56 19 -84 -11 -25 -27 -25
-27 -25 -5 0 13 -10 37 -22 54 -12 17 -17 28 -12 24 20 -12 51 22 64 68 8 29
11 77 8 134 -5 86 -5 88 17 83 30 -5 58 24 49 52 -9 28 -38 65 -79 99 l-33 27
16 39 17 39 26 -47 c15 -25 41 -59 58 -75z m294 -96 c-4 -19 -8 -70 -8 -113 0
-65 -2 -76 -15 -70 -8 3 -32 8 -52 11 -21 2 -38 5 -38 7 0 1 8 17 17 36 13 25
17 59 17 125 l1 90 42 -25 c41 -25 43 -28 36 -61z m354 -3 c8 -43 19 -68 36
-83 13 -11 26 -29 29 -40 3 -10 9 -26 12 -35 14 -34 -25 -30 -65 6 -40 36
-128 85 -152 85 -9 0 -16 15 -20 38 -3 20 -8 46 -13 57 -4 11 8 -2 27 -29 70
-101 124 -112 124 -25 0 24 -4 56 -8 71 -5 21 -4 26 6 23 7 -3 18 -33 24 -68z
m-1789 41 c8 -1 12 -20 12 -59 0 -31 3 -66 6 -76 4 -13 0 -11 -15 7 -11 14
-21 30 -21 35 0 6 -9 28 -20 50 -25 52 -25 59 3 50 12 -3 28 -7 35 -7z m-1166
-35 c3 -21 8 -46 13 -56 6 -13 -2 -11 -34 10 -46 30 -52 53 -18 69 34 17 35
17 39 -23z m654 -62 c-1 -48 -1 -48 -23 -33 -13 8 -23 21 -23 29 0 11 30 46
46 53 0 0 0 -22 0 -49z m1259 -24 c31 -98 33 -120 12 -137 -27 -23 -14 -60 41
-116 57 -57 160 -109 201 -101 l28 6 -13 -37 c-15 -43 -18 -150 -4 -207 5 -22
7 -41 5 -43 -2 -3 -19 8 -37 23 -22 18 -32 35 -30 49 5 38 -63 111 -148 160
l-41 23 -3 70 c-4 89 -30 148 -66 148 -18 0 -29 -9 -40 -32 -8 -18 -18 -33
-21 -33 -4 0 -9 22 -13 49 -7 52 -37 101 -63 101 -11 0 -14 6 -9 23 3 12 6 30
6 40 0 17 2 17 29 -2 34 -25 112 -47 134 -38 23 9 22 58 -2 89 -17 22 -18 24
-2 25 12 1 22 -16 36 -60z m-1735 33 c0 -5 -2 -10 -4 -10 -3 0 -8 5 -11 10 -3
6 -1 10 4 10 6 0 11 -4 11 -10z m-333 -160 c6 0 23 14 37 31 32 38 32 36 1
-25 -14 -27 -25 -55 -25 -63 0 -7 -8 -13 -17 -13 -10 0 -27 -3 -38 -6 -16 -4
-20 0 -20 23 -1 15 -4 51 -8 78 l-7 50 32 -38 c18 -20 38 -37 45 -37z m1368
40 c3 -5 1 -10 -4 -10 -6 0 -11 5 -11 10 0 6 2 10 4 10 3 0 8 -4 11 -10z m89
-40 c-14 -38 -24 -118 -18 -160 4 -32 2 -56 -9 -76 -18 -35 -9 -65 32 -109 34
-36 60 -138 66 -261 2 -44 10 -98 19 -118 9 -21 16 -42 16 -47 0 -19 -26 -7
-48 22 -18 22 -21 33 -13 43 15 17 6 41 -34 91 -18 22 -41 61 -53 88 -11 26
-26 47 -32 47 -13 0 -10 39 9 120 33 144 34 301 2 358 -7 12 -4 19 12 27 27
14 60 -2 51 -25z m-1314 -1 c0 -5 -4 -9 -10 -9 -5 0 -10 7 -10 16 0 8 5 12 10
9 6 -3 10 -10 10 -16z m2854 -13 c25 -19 65 -42 90 -51 39 -15 46 -22 46 -45
0 -23 -4 -27 -20 -23 -25 7 -57 -44 -66 -104 -6 -38 -8 -41 -26 -32 -10 6 -33
9 -51 7 -28 -3 -32 -7 -35 -35 -3 -28 4 -40 47 -83 28 -28 51 -57 51 -64 0
-15 21 -26 50 -26 17 0 17 -3 4 -47 -20 -66 -17 -146 7 -233 31 -110 40 -130
62 -142 17 -9 24 -6 43 15 13 15 26 47 29 72 6 34 12 45 25 45 27 0 59 46 77
111 15 53 18 57 51 63 20 3 37 4 38 3 1 -2 -7 -57 -22 -144 -5 -28 -3 -33 20
-39 32 -8 29 -27 -5 -34 -24 -5 -116 -97 -137 -137 -5 -10 -13 -36 -16 -59 -8
-45 19 -133 54 -177 24 -30 25 -38 6 -31 -21 8 -56 -14 -56 -35 0 -10 9 -29
19 -43 19 -23 19 -24 -5 -63 -29 -49 -31 -75 -4 -82 11 -3 20 -9 20 -14 0 -17
-26 -9 -47 14 -19 20 -20 30 -14 102 8 97 0 164 -24 181 -15 11 -14 13 12 16
23 2 28 8 31 35 3 28 -4 40 -46 82 -27 27 -72 61 -99 75 -44 22 -52 30 -61 69
-7 24 -19 50 -28 57 -11 10 -14 23 -9 46 10 55 -10 115 -49 148 -25 22 -41 47
-51 83 -17 58 -46 83 -71 62 -8 -6 -16 -10 -17 -8 -46 68 -93 109 -126 109
-25 0 -43 -33 -36 -69 l7 -36 -26 38 c-27 39 -32 52 -18 43 5 -3 19 2 31 10
25 18 21 41 -15 90 -20 26 -22 35 -14 65 6 18 10 53 10 76 0 44 6 49 44 34 13
-5 19 -19 21 -49 7 -92 68 -212 115 -227 56 -18 76 61 41 163 -10 28 -16 52
-14 52 2 0 14 -7 27 -16 23 -14 26 -14 45 7 24 26 44 115 39 170 -2 22 -2 39
-1 39 2 0 23 -15 47 -34z m-2404 -98 l37 -22 -48 -38 c-27 -21 -52 -39 -56
-39 -4 -1 -17 16 -29 37 -19 35 -21 46 -12 107 l10 67 30 -45 c17 -25 47 -55
68 -67z m290 83 c0 -5 3 -24 6 -42 l6 -34 -21 30 c-25 35 -27 55 -6 55 8 0 15
-4 15 -9z m922 -11 c11 0 15 -5 12 -15 -4 -8 -10 -12 -15 -9 -6 3 -16 0 -24
-6 -13 -11 -15 -7 -15 21 0 26 3 30 12 21 7 -7 20 -12 30 -12z m-611 -41 c4
-13 7 -37 7 -54 0 -26 -1 -25 -11 12 -7 23 -15 45 -19 49 -12 12 -9 26 4 22 7
-3 15 -15 19 -29z m-1469 9 c1 -7 2 -52 2 -101 1 -69 -2 -86 -12 -82 -8 3 -16
5 -18 5 -6 0 -5 78 2 138 6 47 21 71 26 40z m3614 -15 c16 3 25 -1 29 -13 3
-9 23 -36 44 -59 36 -39 38 -45 30 -74 -5 -18 -12 -65 -15 -106 -4 -67 -8 -77
-42 -116 l-37 -43 -7 28 c-12 42 -33 56 -60 38 -22 -14 -23 -14 -35 21 -11 33
-10 38 11 61 39 42 58 87 46 110 -6 11 -18 20 -27 20 -13 0 -15 8 -9 46 3 26
6 60 6 76 0 26 2 28 21 17 12 -6 32 -9 45 -6z m-2276 -62 c0 -6 -4 -13 -10
-16 -5 -3 -10 1 -10 9 0 9 5 16 10 16 6 0 10 -4 10 -9z m767 -139 c23 -30 78
-72 95 -72 4 0 14 8 23 17 16 16 18 15 27 -1 6 -10 34 -29 64 -42 38 -17 54
-29 54 -43 0 -16 -7 -19 -52 -17 -52 1 -53 0 -56 -30 -2 -23 6 -40 35 -74 38
-41 38 -44 29 -86 -11 -46 -23 -56 -33 -26 -3 9 -16 40 -29 69 -13 28 -24 59
-24 67 0 8 -11 28 -24 43 -22 24 -27 26 -45 16 -18 -12 -22 -10 -37 18 -13 27
-20 30 -44 26 -20 -5 -33 -1 -46 14 -21 23 -90 71 -117 82 -16 6 -25 21 -42
75 -6 21 -4 23 17 20 12 -2 33 -14 45 -28 18 -20 25 -23 40 -14 18 11 36 41
48 78 5 16 9 13 26 -20 12 -21 32 -54 46 -72z m-1811 -44 c-1 -107 2 -139 16
-163 16 -30 16 -31 -7 -42 -22 -10 -24 -8 -30 21 -20 108 -47 155 -79 143 -25
-10 -46 -52 -53 -105 -7 -60 -23 -59 -23 1 0 23 -9 60 -19 83 l-19 41 64 42
c35 23 76 58 90 77 15 19 34 34 44 34 16 0 18 -12 16 -132z m230 94 c-8 -9
-19 -13 -22 -9 -10 9 16 38 28 31 6 -4 4 -13 -6 -22z m939 -52 c0 -44 -3 -80
-6 -80 -25 0 -38 135 -14 152 18 14 20 8 20 -72z m-2299 18 c21 -43 62 -86 98
-105 26 -13 30 -13 50 6 17 16 30 19 59 14 41 -6 72 11 62 35 -4 12 -3 12 8 3
8 -6 17 -31 19 -56 3 -24 18 -67 32 -96 31 -59 29 -78 -2 -24 -12 19 -27 35
-35 35 -8 0 -30 -18 -50 -40 -33 -37 -38 -39 -57 -28 -19 12 -24 10 -46 -15
-13 -15 -24 -37 -24 -48 0 -21 -3 -22 -37 -13 -19 5 -23 13 -23 48 0 57 -18
115 -43 140 -17 17 -22 34 -22 77 0 30 -4 64 -8 77 -12 33 0 27 19 -10z m382
-30 c11 -41 7 -45 -21 -24 -15 12 -16 18 -6 40 14 31 14 31 27 -16z m1382 -44
c0 -64 13 -94 40 -94 10 0 22 -4 25 -10 3 -5 14 -10 24 -10 16 0 17 -5 10 -42
-4 -24 -6 -65 -4 -93 4 -48 4 -49 -6 -15 -24 78 -38 100 -64 100 -32 0 -47
-30 -71 -137 -10 -46 -22 -83 -27 -83 -11 0 -27 48 -21 64 3 8 12 41 19 73 7
32 20 76 29 98 9 23 15 72 16 116 0 42 3 79 7 82 16 17 23 3 23 -49z m-1019
-21 c12 3 23 -2 29 -13 14 -25 13 -37 -2 -22 -15 15 -55 16 -60 0 -9 -25 -28
5 -28 44 l0 41 21 -27 c14 -18 28 -26 40 -23z m2863 24 c25 -17 32 -28 25 -38
-12 -19 -11 -90 2 -127 8 -23 7 -41 -5 -77 -20 -56 -20 -166 -1 -220 8 -22 26
-48 40 -58 14 -10 25 -25 25 -33 0 -8 20 -36 45 -63 43 -46 44 -48 34 -86 -9
-32 -13 -36 -21 -22 -22 40 -70 8 -99 -66 -9 -23 -23 -42 -30 -42 -19 0 -39
63 -33 100 4 22 -2 39 -21 65 l-26 35 27 7 c15 4 40 4 55 1 32 -6 59 10 59 36
0 25 -54 94 -97 124 -21 15 -47 40 -58 56 -10 16 -36 40 -57 53 -26 16 -38 30
-38 46 0 22 3 23 53 20 52 -3 52 -3 71 36 21 44 27 148 12 229 -4 26 -6 47 -3
47 4 0 22 -11 41 -23z m-1684 -37 c0 -5 -4 -10 -10 -10 -5 0 -10 5 -10 10 0 6
5 10 10 10 6 0 10 -4 10 -10z m85 -27 c15 -73 28 -104 45 -116 26 -15 26 -27
0 -20 -11 3 -20 10 -20 15 0 5 -11 20 -25 34 -14 14 -31 40 -39 58 -12 29 -12
34 3 44 25 17 30 14 36 -15z m-681 -65 c-20 -21 -44 -102 -44 -147 l0 -36 -24
29 -23 30 23 34 c13 19 29 53 34 76 19 71 19 71 35 50 12 -16 11 -21 -1 -36z
m3826 -4 c0 -14 -4 -23 -9 -20 -5 3 -7 15 -4 26 7 28 13 25 13 -6z m-4560 -97
c0 -5 -4 -5 -10 -2 -12 7 -60 -39 -60 -57 0 -7 -15 -18 -34 -24 -31 -9 -33 -9
-28 10 3 12 14 27 24 34 14 10 18 27 18 80 l0 67 45 -50 c24 -27 44 -54 45
-58z m123 71 c8 -31 -9 -57 -33 -51 -16 4 -19 11 -14 32 9 35 13 41 28 41 8 0
16 -10 19 -22z m4734 -90 c13 -14 12 -19 -6 -37 -12 -12 -28 -39 -37 -61 -19
-48 -29 -50 -38 -8 -3 17 -14 40 -23 50 -35 39 -75 11 -88 -65 -6 -33 -9 -35
-20 -21 -16 23 -70 12 -126 -26 -68 -46 -94 -36 -60 22 11 18 21 52 23 76 2
23 4 42 6 42 1 0 20 -9 42 -20 49 -25 108 -27 117 -4 3 10 2 29 -4 44 -7 20
-7 32 3 45 12 16 14 16 14 3 0 -9 8 -26 19 -39 18 -22 20 -22 44 -6 14 9 36
38 49 65 l23 49 24 -46 c13 -25 30 -54 38 -63z m-4557 51 c0 -6 -4 -7 -10 -4
-5 3 -10 11 -10 16 0 6 5 7 10 4 6 -3 10 -11 10 -16z m2995 -103 c8 -3 15 -18
15 -33 0 -15 7 -57 15 -93 8 -36 17 -81 20 -101 7 -47 40 -89 69 -89 21 0 24
-6 30 -56 11 -95 49 -143 87 -108 10 9 21 29 24 44 l6 29 37 -26 c20 -14 48
-30 62 -35 15 -6 20 -12 12 -15 -16 -6 -42 -56 -42 -83 0 -11 -2 -20 -4 -20
-2 0 -27 15 -55 34 -61 42 -114 60 -147 52 -36 -10 -32 -53 11 -103 28 -33 31
-40 15 -36 -36 10 -51 -14 -48 -81 1 -35 -4 -75 -12 -93 -12 -28 -12 -34 3
-51 20 -22 23 -45 5 -40 -7 3 -24 27 -38 54 -40 79 -88 67 -105 -26 -6 -33 -9
-35 -44 -35 -28 -1 -52 -11 -92 -40 -44 -32 -51 -35 -36 -15 10 14 25 41 33
60 15 32 15 35 -3 50 -16 13 -17 19 -6 50 6 19 12 45 12 58 1 13 6 33 13 45 6
12 19 49 28 82 l17 60 13 -55 c25 -109 67 -131 105 -55 20 42 28 172 12 227
-7 26 -6 27 26 21 41 -6 62 15 53 53 -15 57 -174 174 -237 174 -18 0 -20 4
-14 23 4 12 9 49 12 83 4 49 9 62 27 70 17 7 22 19 24 67 l3 58 40 -49 c21
-28 46 -52 54 -56z m-2749 -34 c-9 -8 -26 10 -26 26 1 15 2 15 15 -2 8 -11 13
-21 11 -24z m438 13 c3 -8 2 -23 -1 -32 -6 -15 -7 -15 -14 3 -11 27 -11 44 0
44 5 0 11 -7 15 -15z m1729 -79 c6 -36 5 -38 -10 -24 -11 11 -13 25 -9 43 9
34 12 31 19 -19z m-2284 -82 c-16 -18 -20 -30 -16 -54 5 -23 3 -30 -8 -30 -9
0 -20 -11 -25 -25 -12 -33 18 -130 60 -191 26 -37 27 -43 13 -48 -9 -4 -19 -3
-22 2 -3 5 -22 16 -41 26 -19 9 -43 30 -52 46 -26 46 -46 49 -80 11 -28 -31
-30 -32 -43 -14 -27 34 -16 70 15 51 44 -28 80 34 83 141 2 63 3 67 24 63 26
-5 48 26 58 80 l7 38 25 -36 24 -37 -22 -23z m-506 21 c-10 -5 -32 -24 -49
-41 l-31 -32 -27 34 c-15 19 -37 35 -49 35 -17 1 -15 3 8 8 17 4 39 4 51 0 29
-10 54 8 54 38 l0 27 31 -30 c28 -27 29 -30 12 -39z m2467 13 c0 -17 -3 -16
-34 4 -33 22 -33 23 -12 34 17 9 24 8 34 -4 6 -9 12 -24 12 -34z m-700 13 c0
-22 -5 -30 -24 -33 l-23 -5 19 34 c24 40 28 41 28 4z m2968 -21 c-1 -32 -12
-47 -22 -31 -5 8 12 61 20 61 1 0 2 -14 2 -30z m-1844 -54 c-8 -32 -30 -31
-52 2 -13 20 -13 22 1 17 8 -4 21 0 28 8 19 21 32 6 23 -27z m-269 7 c-8 -8
-15 -17 -15 -19 0 -16 28 -55 68 -97 45 -45 47 -50 50 -115 6 -99 0 -116 -22
-72 -23 43 -84 109 -112 120 -15 6 -25 24 -34 60 -12 48 -11 52 8 66 11 8 26
30 32 48 7 24 16 33 25 29 12 -4 12 -7 0 -20z m-1090 -63 l6 -20 -34 20 c-27
16 -33 25 -30 44 l5 23 23 -23 c13 -13 26 -33 30 -44z m2927 -9 c-3 -23 1 -32
19 -42 13 -7 25 -12 27 -11 1 1 2 0 2 -3 0 -3 0 -27 0 -55 0 -46 -2 -50 -24
-50 -19 0 -26 7 -31 33 -14 61 -34 90 -61 84 -22 -4 -24 -1 -24 39 0 37 4 45
28 58 24 13 29 13 48 -5 14 -13 19 -28 16 -48z m-2020 -24 c14 -5 15 -12 6
-47 l-11 -41 -43 47 c-26 28 -44 57 -44 71 l0 23 38 -23 c20 -13 44 -26 54
-30z m-2269 1 c4 -28 2 -45 -6 -50 -18 -12 -21 -10 -37 25 -17 37 -44 46 -69
23 -16 -15 -19 -15 -36 4 -18 20 -18 20 26 21 24 1 58 5 74 9 17 4 33 8 36 9
4 0 9 -18 12 -41z m4705 12 c14 -15 37 -22 85 -27 58 -5 66 -8 70 -29 4 -21 1
-23 -20 -18 -26 7 -53 -10 -53 -35 0 -9 -16 -30 -36 -47 l-37 -30 -56 28 c-31
15 -63 29 -71 31 -12 4 -14 16 -12 51 l4 47 34 -7 c30 -6 36 -3 51 25 10 17
19 31 20 31 1 0 11 -9 21 -20z m-3788 -60 c0 -6 -11 -5 -25 2 -16 7 -24 17
-20 26 3 7 5 21 5 30 0 11 8 4 20 -16 11 -18 20 -37 20 -42z m2999 12 c60 -37
113 -54 143 -47 19 5 27 1 36 -19 6 -14 17 -26 23 -26 7 0 4 -11 -7 -27 -10
-16 -17 -40 -16 -55 1 -16 -9 -45 -24 -67 -35 -53 -30 -94 11 -101 24 -4 31
-11 33 -32 3 -27 3 -27 -48 -21 -46 5 -53 4 -68 -18 l-17 -24 -6 50 c-20 158
-26 175 -64 175 -18 0 -26 9 -39 46 -8 25 -31 67 -50 94 l-35 48 37 25 c20 14
39 26 41 26 2 1 25 -12 50 -27z m-3264 -52 c7 0 18 7 25 15 11 13 18 8 47 -35
19 -28 41 -54 49 -57 10 -4 14 -24 14 -77 l-1 -71 -20 28 c-23 30 -50 35 -69
12 -16 -19 -22 -15 -67 53 -36 53 -38 61 -35 120 l4 62 20 -25 c11 -14 25 -25
33 -25z m550 -15 c-18 -51 -18 -152 -1 -236 10 -47 12 -85 5 -140 -4 -40 -8
-81 -9 -89 0 -8 -7 0 -15 19 -22 49 -56 81 -87 81 -21 0 -29 6 -34 24 -3 14
-14 32 -24 41 -20 18 -17 39 11 70 10 11 27 42 39 68 12 26 25 47 30 47 14 0
37 49 46 95 4 22 11 51 16 64 8 21 11 23 23 10 12 -12 12 -19 0 -54z m539 -4
c13 -11 22 -11 42 -2 39 17 87 14 101 -8 10 -16 9 -20 -3 -25 -24 -9 -45 -72
-47 -142 -1 -35 -4 -64 -7 -64 -3 0 -18 13 -35 28 -33 30 -55 82 -55 129 0 17
-7 50 -15 73 -16 44 -20 81 -5 45 4 -12 15 -27 24 -34z m-2056 -20 c18 -33 45
-73 61 -90 24 -26 27 -33 16 -49 -7 -10 -19 -45 -25 -79 -15 -75 1 -189 31
-221 12 -14 19 -35 19 -62 0 -22 7 -57 15 -76 13 -31 19 -36 40 -32 24 5 25 3
25 -46 0 -68 17 -124 48 -161 23 -28 24 -30 6 -34 -29 -5 -54 -32 -54 -58 0
-64 66 -143 120 -143 22 0 30 -6 38 -30 15 -41 0 -45 -34 -9 -46 48 -76 61
-103 43 -17 -12 -21 -13 -21 -1 0 7 -15 39 -34 70 -31 52 -34 60 -24 94 14 51
5 181 -15 219 -28 54 -66 52 -89 -6 -12 -31 -32 -251 -31 -340 1 -36 6 -77 12
-93 l11 -27 -63 31 c-34 17 -74 40 -89 51 l-27 19 24 47 c49 97 53 244 7 281
-18 16 -18 17 4 37 20 20 22 20 33 2 15 -25 48 -23 65 5 20 31 38 140 30 182
-5 31 -4 35 14 35 35 0 43 63 17 127 -8 19 -15 47 -15 62 0 14 -8 52 -18 84
-14 43 -30 69 -68 105 -27 26 -58 52 -68 57 -16 9 -17 14 -7 32 8 16 23 23 54
26 23 2 47 4 52 5 6 1 25 -25 43 -57z m2307 -60 c-3 -8 -8 -47 -11 -85 -6 -93
-19 -103 -20 -16 -1 48 -8 83 -23 112 -15 32 -18 44 -8 50 16 10 69 -42 62
-61z m-557 45 c10 4 29 8 44 9 31 3 42 -20 53 -112 5 -39 3 -53 -8 -60 -8 -4
-21 -21 -30 -38 -9 -16 -16 -24 -17 -17 0 21 -60 142 -70 144 -6 0 -16 1 -22
2 -13 1 -38 48 -38 71 0 10 8 11 36 3 20 -5 43 -6 52 -2z m1352 -17 c0 -5 -38
-49 -43 -49 -1 0 -1 18 1 39 4 36 6 39 23 28 10 -6 19 -14 19 -18z m1662 -58
l-7 -45 -18 27 c-16 25 -16 28 6 64 18 31 22 34 25 18 1 -11 -1 -40 -6 -64z
m-4442 -22 c6 -22 26 -57 43 -77 32 -36 33 -38 27 -115 l-5 -79 -27 21 c-14
12 -33 21 -42 21 -22 0 -47 -42 -53 -90 -9 -68 -21 -45 -20 39 0 53 -4 85 -13
96 -11 14 -10 18 8 30 20 15 52 123 52 180 0 37 17 22 30 -26z m4588 -17 c6
-18 -15 -14 -22 4 -4 10 -1 14 6 12 6 -2 14 -10 16 -16z m-2431 -18 c3 -7 -2
-21 -11 -30 -18 -18 -14 -48 12 -76 13 -16 12 -19 -9 -37 -31 -26 -34 -26 -47
3 -7 15 -7 37 -1 62 4 22 9 53 9 71 0 27 3 30 21 26 11 -3 23 -12 26 -19z
m2755 -63 l28 -18 -30 -28 c-16 -16 -31 -27 -33 -24 -2 2 -20 34 -39 70 -27
49 -33 70 -25 78 8 8 19 1 41 -25 16 -20 42 -44 58 -53z m-4477 59 c3 -5 1
-10 -4 -10 -6 0 -11 5 -11 10 0 6 2 10 4 10 3 0 8 -4 11 -10z m4577 -11 c17
-9 18 -13 7 -20 -23 -14 -35 -10 -35 11 0 23 1 23 28 9z m-4489 -203 c33 -34
36 -42 29 -70 -7 -25 -13 -30 -31 -28 -13 2 -31 -4 -40 -12 -16 -15 -20 -13
-45 13 -28 29 -28 29 -12 75 9 26 16 72 16 104 l0 57 24 -50 c12 -28 39 -68
59 -89z m2053 57 c-3 -4 -20 6 -36 22 l-30 29 22 12 c21 11 24 10 37 -22 7
-19 11 -38 7 -41z m1808 22 c18 -14 38 -25 44 -25 7 0 12 -4 12 -10 0 -5 -9
-10 -20 -10 -32 0 -40 -30 -21 -77 13 -33 30 -51 79 -82 34 -23 67 -41 72 -41
18 0 9 -14 -25 -43 -42 -34 -68 -28 -52 12 15 40 4 61 -33 61 -17 0 -40 -5
-51 -11 -14 -7 -29 -7 -54 2 -29 11 -34 16 -29 36 7 27 -11 53 -36 53 -10 0
-23 7 -30 15 -10 11 -5 20 24 45 19 17 45 47 56 66 12 19 24 34 26 34 3 0 20
-11 38 -25z m709 -17 c7 -43 -3 -49 -19 -14 -7 15 -8 30 -2 41 12 21 14 19 21
-27z m-3148 -18 c-4 -12 -9 -19 -12 -17 -3 3 -2 15 2 27 4 12 9 19 12 17 3 -3
2 -15 -2 -27z m2891 -80 c9 -11 6 -24 -14 -60 -25 -45 -26 -46 -44 -28 -14 14
-18 34 -18 90 l0 72 32 -30 c18 -16 38 -36 44 -44z m-4563 -11 c11 -12 25 -18
33 -15 10 4 14 1 12 -6 -3 -7 -13 -15 -24 -16 -23 -4 -44 -30 -44 -54 0 -34
42 -129 78 -176 l37 -47 -20 -40 c-11 -22 -27 -41 -35 -43 -8 -2 -20 -10 -26
-18 -9 -12 -19 -7 -56 31 -47 46 -77 56 -98 30 -10 -12 -17 -11 -50 11 -21 14
-43 23 -49 20 -6 -4 -18 5 -27 19 -19 29 -11 48 9 21 18 -24 45 -17 70 16 16
21 22 47 25 111 4 77 6 83 26 83 15 -1 27 11 43 44 13 24 33 55 45 69 l22 26
6 -22 c3 -13 13 -32 23 -44z m4357 31 c0 -13 -5 -18 -15 -14 -12 5 -13 10 -4
20 15 19 19 18 19 -6z m-1886 -29 c14 -21 41 -49 61 -61 l36 -22 -39 -40 -39
-39 -47 23 c-34 16 -45 26 -40 38 4 8 14 43 23 78 8 34 16 62 18 62 1 0 14
-17 27 -39z m-388 11 c51 -41 34 -97 -36 -119 -87 -28 -80 -30 -80 30 0 52 1
54 24 50 19 -4 28 1 40 26 19 36 23 37 52 13z m1237 -49 c12 -4 16 -11 11 -22
-30 -72 -30 -72 -5 -92 13 -10 18 -19 12 -19 -22 0 -10 -50 23 -93 l34 -45
-25 -35 -25 -36 -43 21 c-28 13 -46 30 -49 44 -4 13 -20 39 -36 58 -17 18 -30
42 -30 53 0 10 -4 23 -10 29 -5 5 -7 26 -3 47 4 28 10 37 25 37 25 0 39 40 28
80 l-9 30 42 -26 c23 -14 50 -28 60 -31z m-2710 -14 c4 -3 -1 -25 -12 -50 -17
-36 -21 -40 -26 -24 -4 11 -11 30 -16 43 -5 13 -9 37 -9 54 l0 31 28 -24 c15
-13 31 -26 35 -30z m2987 -4 c7 -8 1 -10 -19 -7 -22 3 -32 -1 -41 -17 -6 -12
-9 -30 -5 -40 4 -15 -1 -17 -42 -17 -42 1 -48 -2 -51 -21 -3 -20 -6 -21 -34
-11 l-31 11 49 25 c26 13 71 48 99 77 46 47 51 50 58 31 4 -11 12 -25 17 -31z
m-2030 23 c0 -16 -27 -63 -49 -82 -26 -24 -26 -16 -1 31 11 21 20 46 20 55 0
11 5 15 15 12 8 -4 15 -10 15 -16z m3417 -88 c27 0 47 25 40 50 -6 23 7 25 42
6 l24 -13 -23 -13 c-13 -7 -44 -32 -69 -55 -37 -34 -52 -42 -72 -38 -22 4 -28
12 -33 41 -3 21 -8 53 -12 72 l-7 35 45 -42 c24 -24 53 -43 65 -43z m-1317 28
l0 -43 -24 25 c-22 24 -23 25 -5 34 11 5 19 13 19 18 0 4 2 8 5 8 3 0 5 -19 5
-42z m-1922 -57 c17 -26 47 -59 66 -72 30 -20 34 -29 39 -78 4 -48 1 -60 -19
-83 -12 -15 -25 -42 -29 -59 -9 -42 -19 -25 -35 63 -11 61 -37 108 -60 108 -5
0 -19 -10 -30 -22 l-22 -23 8 50 c4 27 7 63 8 80 1 24 30 85 40 85 2 0 17 -22
34 -49z m3905 -3 c-4 -24 -7 -25 -24 -15 -18 11 -18 12 3 29 27 20 28 20 21
-14z m-897 -44 c-3 -7 -16 -9 -30 -7 -38 8 -59 -14 -53 -54 l6 -34 -37 6 c-40
7 -102 35 -102 46 0 4 9 5 20 2 27 -7 118 39 155 77 l30 31 7 -28 c4 -15 6
-33 4 -39z m-3691 40 c13 -9 28 -13 33 -10 5 3 17 -3 27 -14 25 -28 40 -25 69
12 14 18 26 30 28 28 2 -3 -1 -29 -7 -59 -9 -47 -12 -51 -24 -37 -7 9 -19 16
-26 16 -8 0 -27 8 -44 18 -48 27 -66 9 -65 -64 l2 -58 -22 45 c-23 48 -48 60
-75 35 -24 -22 -41 -3 -41 48 0 37 1 38 18 23 25 -23 34 -21 62 8 28 29 33 30
65 9z m1170 -44 c7 0 18 6 24 14 11 13 15 12 32 -5 20 -20 26 -34 9 -24 -23
14 -70 -70 -70 -127 0 -10 -5 -18 -10 -18 -6 0 -13 8 -16 18 -16 52 -35 82
-52 82 -21 0 -45 -24 -56 -55 -7 -20 -8 -20 -22 -1 -8 11 -14 32 -14 46 0 35
48 90 90 104 32 10 37 9 53 -11 10 -13 24 -23 32 -23z m645 25 c0 -17 -4 -23
-15 -19 -11 5 -12 11 -4 25 13 26 19 24 19 -6z m1570 -14 c0 -4 -9 -14 -20
-24 -11 -9 -20 -28 -20 -42 0 -18 -5 -25 -20 -25 -33 0 -43 -34 -27 -90 l14
-48 -39 -26 c-48 -31 -50 -31 -66 -5 -15 23 -13 27 20 43 16 8 22 19 20 34 -2
12 4 32 12 44 9 12 16 31 16 41 0 25 80 116 97 110 7 -3 13 -8 13 -12z m-3711
-18 c3 -2 -5 -11 -18 -19 -17 -12 -21 -22 -17 -40 4 -16 2 -24 -7 -24 -10 0
-11 11 -3 55 9 46 12 52 26 42 8 -6 17 -13 19 -14z m631 1 c0 -24 28 -71 46
-78 9 -4 24 0 33 7 9 7 26 14 38 15 19 1 21 -2 11 -18 -9 -14 -8 -27 5 -57 9
-21 22 -60 27 -88 11 -47 10 -51 -12 -65 -12 -8 -33 -24 -47 -36 l-24 -21 -53
31 c-46 27 -54 37 -64 76 -7 31 -7 56 0 80 5 19 10 65 10 101 0 36 3 69 6 72
10 10 24 -2 24 -19z m1660 -25 c0 -11 -28 -24 -36 -17 -2 3 -2 12 2 21 6 16
34 12 34 -4z m2098 -66 c-12 -11 -18 -9 -38 12 l-25 26 25 19 25 19 13 -31
c11 -26 11 -33 0 -45z m-2714 28 c12 -10 31 -24 43 -30 16 -8 25 -27 34 -70
11 -56 37 -101 59 -101 16 0 50 39 50 58 0 12 6 8 18 -13 17 -28 17 -31 0 -67
-10 -20 -22 -40 -28 -43 -20 -12 -10 -82 20 -143 57 -114 160 -174 168 -98 l4
29 23 -29 c19 -24 27 -27 42 -18 27 16 53 74 53 117 0 20 5 37 10 37 6 0 10
-8 10 -18 0 -10 6 -27 14 -37 13 -17 11 -25 -11 -63 -14 -24 -49 -67 -78 -96
-53 -52 -53 -53 -64 -29 -19 42 -60 26 -88 -36 -11 -26 -11 -26 -12 10 -1 47
-21 64 -59 51 l-29 -10 -11 60 c-14 74 -36 102 -74 94 -16 -3 -28 -1 -28 5 0
5 -15 33 -33 62 -28 44 -35 65 -40 130 -3 47 -14 94 -26 120 -12 24 -21 53
-21 64 0 11 -6 39 -14 61 l-14 40 30 -9 c17 -5 41 -17 52 -28z m1502 27 c29
-10 31 -13 21 -36 -10 -21 -8 -27 10 -42 25 -20 14 -40 -22 -40 -27 0 -45 -18
-45 -46 0 -38 -22 -46 -60 -21 -70 46 -73 47 -95 33 -12 -8 -32 -12 -46 -9
-36 7 -51 -17 -47 -74 3 -43 0 -51 -27 -75 -22 -19 -33 -23 -42 -16 -7 6 -24
8 -37 4 -28 -7 -41 6 -51 52 -5 25 -3 32 9 32 8 0 27 19 43 42 16 24 39 45 53
48 14 3 29 16 35 28 7 16 15 20 30 15 11 -4 36 -7 55 -8 35 0 35 0 35 45 0 50
19 74 47 59 11 -6 30 -4 55 5 21 7 40 14 42 15 3 0 19 -4 37 -11z m-3563 -10
c15 -12 15 -17 2 -53 -16 -45 -19 -155 -6 -201 8 -28 7 -30 -13 -27 -13 3 -28
-2 -35 -11 -19 -23 -36 -20 -56 12 -10 15 -29 39 -43 55 -28 29 -24 35 9 15
34 -21 63 23 78 118 16 100 18 104 34 104 7 0 21 -6 30 -12z m2444 -64 c-1 -2
-19 -14 -40 -28 l-37 -25 0 29 c0 18 8 34 22 44 20 14 24 14 40 -1 10 -9 17
-17 15 -19z m2162 -28 c28 -19 67 -40 85 -47 34 -12 35 -13 38 -83 3 -59 -9
-128 -27 -154 -1 -1 -26 9 -56 23 -30 14 -63 25 -74 25 -11 0 -26 9 -33 20
-16 27 -34 25 -71 -5 l-30 -26 10 33 c5 18 9 34 9 36 0 2 4 0 10 -3 35 -22 80
71 80 167 0 26 2 48 4 48 2 0 27 -15 55 -34z m-4100 -215 c44 -44 83 -53 99
-24 8 13 11 10 17 -18 13 -62 73 -166 105 -185 32 -20 36 -34 19 -66 -6 -11
-14 -41 -18 -67 l-8 -46 -12 43 c-7 24 -22 53 -33 64 -14 14 -18 23 -10 26 21
7 13 47 -15 84 -63 80 -193 150 -240 129 -26 -12 -29 -31 -11 -64 7 -14 12
-77 12 -167 1 -151 10 -190 48 -214 33 -20 57 20 80 135 11 57 21 105 22 106
1 1 17 -4 37 -10 l36 -11 -21 -35 c-15 -26 -21 -57 -24 -125 -3 -73 -8 -95
-24 -113 -11 -12 -23 -36 -27 -54 l-7 -33 -31 55 c-41 73 -97 122 -132 116
-18 -4 -32 2 -48 19 -49 53 -88 -13 -88 -149 0 -54 -4 -86 -10 -84 -5 2 -34
12 -62 21 l-53 17 20 27 c22 29 44 132 37 168 -3 20 2 23 54 33 70 14 97 42
76 75 -8 13 -11 31 -6 46 11 38 10 161 -1 200 -8 27 -7 38 6 50 14 13 16 13
25 -2 6 -10 21 -18 34 -18 35 0 57 49 63 138 l5 72 22 -49 c13 -27 42 -68 64
-90z m2368 117 c16 -18 19 -34 17 -72 -4 -53 7 -76 38 -76 22 0 100 -43 120
-67 11 -13 10 -18 -6 -27 -10 -6 -34 -24 -54 -39 -37 -29 -37 -29 -51 -8 -7
12 -20 21 -29 21 -20 0 -52 -29 -52 -48 0 -10 -12 -3 -34 19 l-34 34 15 55
c29 108 33 126 33 178 0 58 7 63 37 30z m-1267 -13 c0 -9 -6 -12 -15 -9 -8 4
-12 10 -9 15 8 14 24 10 24 -6z m2110 -8 c1 -7 34 -28 75 -47 41 -19 75 -38
75 -43 0 -4 -7 -22 -16 -39 -20 -39 -11 -78 19 -78 22 -1 21 -1 -3 -15 -23
-13 -27 -11 -55 17 -16 17 -40 37 -52 45 -12 8 -25 29 -29 46 -3 18 -15 49
-26 70 -11 22 -17 46 -14 54 6 16 26 9 26 -10z m613 -79 c7 -60 36 -104 64
-101 19 2 19 0 5 -45 -8 -26 -16 -48 -17 -50 -2 -2 -20 8 -40 23 -21 14 -44
25 -51 25 -18 0 -44 -40 -44 -67 0 -13 -5 -23 -11 -23 -7 0 -44 -34 -83 -75
-54 -57 -77 -74 -90 -69 -10 4 -15 13 -11 22 14 37 17 136 6 193 -14 67 -10
80 16 57 23 -20 79 -48 116 -59 64 -18 88 34 41 90 -23 28 -24 34 -14 71 8 31
16 40 33 40 12 0 29 5 37 10 28 18 37 10 43 -42z m-2428 9 c11 -9 21 -34 25
-69 9 -66 84 -187 136 -221 22 -14 34 -30 34 -44 0 -25 -24 -22 -34 3 -8 22
-58 17 -110 -11 -48 -25 -54 -23 -35 19 9 18 9 44 0 101 -14 96 -33 135 -66
135 -30 0 -43 -23 -75 -135 -18 -63 -33 -91 -69 -132 -25 -29 -51 -53 -56 -53
-6 0 -27 -8 -47 -19 l-37 -18 4 75 c4 66 7 77 25 84 14 5 20 16 19 35 0 16 4
55 11 89 11 58 12 60 39 56 16 -2 46 5 69 17 23 12 50 21 61 21 14 0 27 13 41
40 22 43 35 48 65 27z m-1695 -75 c-32 -33 -44 -86 -38 -179 l3 -60 -48 1
c-48 1 -48 1 -43 30 3 16 6 51 6 77 0 42 3 51 23 58 31 12 43 29 56 76 12 46
51 73 63 43 5 -12 -2 -26 -22 -46z m2140 64 c0 -3 -4 -8 -10 -11 -5 -3 -10 -1
-10 4 0 6 5 11 10 11 6 0 10 -2 10 -4z m-2824 -153 c0 -67 5 -98 19 -128 34
-69 84 -52 101 34 l7 32 17 -40 c16 -35 17 -44 5 -78 -8 -21 -14 -57 -15 -80
0 -24 -2 -43 -5 -43 -2 0 -38 16 -78 36 l-73 36 -1 82 c0 45 -7 96 -15 115
-12 31 -12 38 7 77 11 24 22 43 25 44 3 0 6 -39 6 -87z m1772 -52 c31 -12 64
-27 72 -32 32 -20 41 -21 59 -5 22 20 29 14 23 -23 -4 -27 -6 -28 -32 -18 -55
21 -78 -40 -45 -119 13 -31 13 -38 0 -58 -13 -20 -13 -26 3 -55 18 -33 18 -35
0 -70 -10 -19 -18 -40 -18 -47 0 -6 -16 4 -35 22 -35 33 -35 33 -25 81 7 28 8
78 4 121 -5 61 -11 77 -35 103 -16 17 -29 39 -29 48 0 10 -16 36 -35 59 -29
34 -34 46 -29 69 12 47 27 45 46 -6 17 -43 23 -49 76 -70z m-1471 77 c31 -33
31 -33 19 -87 l-12 -53 -13 28 c-7 15 -25 44 -42 65 -41 52 -39 67 12 78 3 0
19 -14 36 -31z m3812 -20 c39 -35 57 -57 54 -69 -4 -14 -10 -16 -34 -7 -16 5
-29 16 -29 24 0 24 -45 27 -92 6 -40 -17 -45 -18 -75 -3 -58 29 -39 55 42 56
42 0 52 4 60 23 5 12 11 22 13 22 2 0 30 -23 61 -52z m915 -40 c-15 -15 -29
-28 -30 -28 -1 0 5 18 13 40 13 32 19 38 30 28 11 -9 9 -16 -13 -40z m-3614
30 c25 15 36 0 45 -65 4 -30 18 -69 32 -90 21 -31 23 -39 12 -60 -11 -21 -19
-23 -96 -23 -80 0 -83 1 -83 23 0 13 4 27 9 33 12 13 31 107 31 156 0 36 2 39
16 27 12 -10 20 -10 34 -1z m-1724 -48 c12 0 24 5 26 11 2 7 15 -11 29 -40 14
-28 24 -51 22 -51 -2 0 -40 18 -84 41 -67 33 -79 42 -69 54 11 13 15 13 33 0
12 -8 31 -15 43 -15z m4724 -72 c0 -16 -3 -19 -11 -11 -6 6 -8 16 -5 22 11 17
16 13 16 -11z m-308 -110 c-18 -31 -32 -36 -32 -13 0 9 -7 30 -16 46 -12 24
-13 33 -3 45 10 12 16 10 40 -18 26 -32 26 -34 11 -60z m962 46 c-19 -46 -5
-67 43 -62 31 4 33 2 33 -27 0 -26 -7 -33 -48 -52 -26 -12 -60 -33 -77 -47
l-30 -25 -1 38 c-2 31 3 40 27 53 26 15 28 19 18 47 -6 16 -17 35 -25 42 -19
16 -18 39 4 39 9 1 28 7 42 15 14 8 26 14 27 15 1 0 -5 -16 -13 -36z m-4609
-4 c-8 -24 9 -57 32 -64 15 -5 18 -19 19 -83 1 -48 8 -93 17 -117 15 -34 15
-37 1 -32 -9 3 -19 6 -23 6 -5 0 -16 20 -25 45 -33 85 -114 123 -153 71 -15
-19 -22 -22 -40 -13 -20 9 -23 18 -23 73 0 56 2 62 19 57 10 -3 22 1 26 8 6 8
13 1 24 -21 36 -74 81 -58 102 36 7 30 16 54 21 54 5 0 7 -9 3 -20z m2711 -22
l46 -13 -7 -40 c-4 -22 -7 -49 -8 -60 -1 -18 -53 -74 -69 -75 -5 0 -8 14 -8
31 0 38 -26 95 -47 103 -43 17 -76 -60 -75 -176 0 -89 23 -150 91 -236 35 -45
36 -49 24 -82 -16 -48 -16 -122 1 -146 13 -16 18 -17 45 -8 27 11 32 10 46
-12 32 -50 81 -15 92 66 3 22 7 40 9 40 2 0 20 -18 39 -39 58 -63 115 -63 115
0 0 16 4 29 9 29 15 0 69 61 82 94 7 17 19 39 27 48 14 17 16 17 28 0 7 -9 14
-28 14 -40 0 -15 7 -26 20 -29 19 -5 19 -6 -5 -47 -30 -52 -32 -82 -5 -96 25
-13 69 4 124 49 56 45 80 39 84 -21 3 -42 0 -49 -25 -64 -15 -10 -46 -35 -68
-55 l-40 -38 -185 24 c-234 31 -463 64 -467 69 -2 2 2 27 8 56 20 92 -8 226
-50 237 -13 3 -23 20 -30 48 -6 24 -19 51 -28 61 -23 22 -29 66 -25 177 2 47
5 57 20 57 22 0 112 52 136 79 22 25 22 25 82 9z m1624 -3 c0 -8 -11 -31 -25
-51 -31 -45 -34 -99 -6 -107 11 -2 38 4 62 14 23 11 44 17 47 14 3 -2 -24 -32
-59 -65 -58 -54 -67 -59 -97 -54 -60 10 -80 -32 -42 -85 19 -28 19 -28 0 -80
-39 -100 -20 -202 34 -185 l21 7 -20 -24 c-11 -13 -21 -26 -22 -28 -2 -3 -9 4
-17 14 -9 12 -21 16 -40 13 -33 -7 -61 25 -76 86 -13 51 -47 120 -70 141 -17
15 -21 15 -48 1 -16 -8 -33 -23 -37 -33 -6 -16 -8 -15 -20 8 -14 25 -12 29 25
69 l39 42 43 -30 c46 -31 106 -47 138 -37 30 9 25 46 -12 94 -84 110 -96 131
-59 111 43 -23 91 -6 91 32 0 17 126 147 143 148 4 0 7 -7 7 -15z m-419 -41
c12 -15 11 -18 -6 -28 -11 -6 -44 -35 -74 -63 -30 -29 -55 -53 -56 -53 -3 0 9
48 20 88 5 14 15 22 30 22 36 0 55 11 55 31 0 23 13 24 31 3z m-1853 -54 c-2
-4 -14 -4 -27 1 -23 9 -23 10 -5 30 l18 20 8 -22 c5 -12 7 -25 6 -29z m1077
29 c28 -7 56 -21 63 -31 7 -10 19 -18 26 -18 8 0 19 -6 25 -14 16 -19 24 -66
12 -66 -5 0 -11 10 -13 23 -4 27 -53 35 -82 14 -17 -12 -23 -11 -52 7 -18 12
-34 28 -37 38 -3 9 -14 21 -24 27 -27 14 -50 -4 -67 -52 -7 -22 -23 -44 -37
-51 -34 -16 -37 -55 -6 -81 14 -12 29 -40 36 -69 10 -42 10 -58 -5 -107 l-17
-57 -44 48 c-40 45 -46 48 -106 54 -57 6 -65 10 -81 38 l-18 30 52 51 c28 29
60 68 70 87 14 28 27 38 62 47 23 7 68 32 98 57 36 30 62 44 75 41 11 -2 43
-10 70 -16z m-1339 -41 c5 -13 7 -27 6 -32 -2 -4 1 -13 6 -20 11 -13 12 -166
2 -166 -4 0 -12 28 -18 61 -6 34 -18 72 -27 85 -30 46 -72 22 -90 -51 -5 -19
-9 -25 -13 -15 -2 8 -11 23 -19 32 -14 15 -12 21 21 60 32 37 76 63 113 67 6
0 15 -9 19 -21z m-1036 -107 c0 -2 -8 3 -18 12 -13 12 -17 27 -14 54 l5 38 13
-50 c7 -27 13 -52 14 -54z m210 52 c39 -3 68 -11 73 -19 4 -8 13 -14 18 -14 6
0 30 -20 55 -45 46 -48 85 -59 102 -28 8 14 11 13 17 -8 18 -63 21 -59 -32
-42 -32 10 -73 13 -123 10 -55 -4 -81 -1 -95 9 -28 21 -63 17 -76 -8 l-12 -22
-14 27 c-7 15 -19 27 -26 27 -7 0 -20 7 -31 15 -17 13 -17 14 2 36 12 12 24
35 27 51 6 25 11 29 28 23 12 -3 51 -9 87 -12z m987 -1 c7 -12 8 -32 4 -53
l-7 -34 -11 53 c-11 54 -6 65 14 34z m2767 -66 l14 -47 -41 -31 c-23 -17 -65
-41 -93 -54 l-51 -24 21 -59 c23 -68 17 -85 -38 -99 -17 -4 -35 -17 -40 -28
-8 -18 -67 -64 -81 -64 -3 0 4 18 15 41 29 55 24 93 -12 97 -16 2 -28 9 -28
16 0 8 11 11 33 8 67 -8 74 47 13 108 -20 19 -36 38 -36 41 0 4 16 19 36 34
33 25 35 26 24 5 -6 -12 -9 -33 -6 -46 8 -29 41 -32 89 -8 41 20 124 100 144
137 17 35 19 33 37 -27z m-1140 23 c20 -12 34 -24 32 -27 -2 -4 -21 -16 -40
-26 l-36 -19 -25 23 -25 24 22 23 c26 28 28 28 72 2z m-1224 -40 c0 -9 -12
-24 -26 -34 l-27 -17 17 23 c9 13 16 35 16 49 0 20 2 22 10 10 5 -8 10 -22 10
-31z m-101 -94 c-43 -50 -59 -78 -59 -107 0 -57 81 -43 168 29 41 34 44 34 37
12 -4 -13 -15 -35 -25 -49 -31 -46 -52 -114 -52 -175 l-1 -61 -51 7 c-28 4
-60 8 -72 8 -19 1 -20 7 -20 99 1 116 -21 177 -64 177 -30 0 -48 -33 -60 -108
-4 -29 -17 -74 -28 -102 l-20 -49 -43 3 c-24 1 -46 4 -47 6 -2 2 -8 23 -13 47
-26 114 -89 118 -116 8 -7 -31 -9 -27 -13 40 -5 70 -3 77 21 107 15 17 29 37
31 44 4 11 8 10 22 -4 20 -20 22 -20 46 -7 20 11 39 58 41 104 1 17 5 1 9 -35
9 -70 31 -126 56 -136 37 -14 74 63 74 155 l0 51 36 -15 c20 -8 52 -14 72 -12
30 2 38 8 40 26 l4 23 27 -28 27 -28 -27 -30z m-1800 -38 c18 -15 43 -27 57
-27 14 0 24 -6 24 -14 0 -11 -20 -8 -91 16 l-91 31 6 36 c3 20 6 45 6 55 0 14
9 6 28 -25 16 -24 43 -57 61 -72z m1206 39 c0 -48 -4 -59 -31 -88 -46 -49 -64
-80 -64 -109 0 -30 21 -43 53 -33 20 6 20 6 3 -11 -11 -12 -15 -26 -12 -41 8
-29 -3 -29 -152 -14 -137 15 -139 15 -147 50 -7 33 -40 61 -62 53 -7 -3 -20
-18 -29 -34 -16 -32 -22 -33 -93 -18 -45 9 -49 12 -36 26 17 17 19 51 5 87
l-10 26 63 0 c41 0 75 6 99 18 l36 19 38 -44 c22 -24 46 -64 54 -90 28 -85 72
-84 102 3 9 27 17 75 18 107 0 54 1 57 20 45 16 -11 23 -10 37 5 10 10 23 32
29 50 7 21 17 31 28 29 11 -2 51 12 51 18 0 0 0 -24 0 -54z m1615 6 c0 -4 -10
-13 -21 -21 -18 -11 -23 -11 -30 1 -15 22 -10 28 21 28 17 0 30 -3 30 -8z
m180 -22 c0 -4 -9 -10 -20 -13 -16 -4 -20 -14 -20 -47 l0 -41 -24 18 c-23 17
-23 19 -6 43 9 14 19 33 23 42 6 16 47 15 47 -2z m-2702 -18 c19 -12 22 -23
22 -72 l0 -58 -57 17 c-42 12 -58 22 -57 34 0 9 1 37 2 62 l2 45 33 -7 c17 -3
42 -13 55 -21z m2912 19 c0 -5 -12 -17 -27 -26 l-28 -18 24 27 c26 28 31 31
31 17z m-85 -71 c-10 -11 -23 -20 -29 -20 -6 0 0 9 14 20 32 25 38 25 15 0z
m-2649 -21 c8 -17 34 -52 57 -77 28 -31 35 -43 22 -38 -11 4 -40 12 -65 17
l-45 10 3 59 c2 33 6 60 8 60 2 0 11 -14 20 -31z m2886 -9 c26 -7 57 -10 68
-7 24 6 24 2 2 -42 -24 -48 -71 -50 -126 -4 -22 18 -43 33 -48 33 -5 0 -1 14
7 31 15 28 18 29 33 16 9 -7 38 -20 64 -27z m-192 -208 c-11 -29 -20 -63 -20
-77 0 -19 -9 -28 -45 -44 -26 -11 -45 -27 -45 -35 0 -12 -10 -16 -39 -16 -59
0 -73 8 -58 31 6 10 17 19 24 19 20 0 42 41 54 103 l12 58 21 -20 c30 -28 67
-31 80 -6 34 64 42 57 16 -13z m-1150 -1 c0 -11 2 -25 5 -33 4 -10 -5 -12 -40
-10 -25 2 -45 6 -45 8 0 2 10 15 22 29 26 30 58 33 58 6z m1312 -13 c2 -12 14
-28 26 -34 31 -16 42 -27 46 -50 2 -10 7 -31 11 -46 6 -23 4 -28 -12 -28 -17
0 -20 7 -19 43 1 39 -1 42 -27 45 -16 2 -40 -4 -54 -14 -25 -16 -26 -16 -18 2
4 11 10 38 12 62 6 45 29 59 35 20z"/>
<path d="M5460 12535 c-53 -63 214 -260 273 -201 24 24 5 66 -54 121 -82 76
-189 116 -219 80z"/>
<path d="M6893 12143 c-49 -117 -12 -320 55 -299 30 10 45 54 50 152 4 77 1
98 -16 138 -17 38 -26 46 -47 46 -21 0 -29 -8 -42 -37z"/>
<path d="M2690 12135 c-19 -23 -5 -57 47 -110 54 -55 157 -108 200 -103 23 2
29 8 31 35 3 28 -4 40 -47 83 -51 51 -157 110 -197 110 -12 0 -27 -7 -34 -15z"/>
<path d="M2580 12105 c-31 -37 11 -162 77 -230 66 -68 113 -65 113 8 -1 74
-69 191 -131 222 -35 19 -43 19 -59 0z"/>
<path d="M2123 11278 c-23 -42 -25 -216 -4 -265 14 -35 44 -51 65 -34 7 6 29
8 49 4 33 -5 37 -3 47 23 17 45 2 116 -46 214 -37 78 -47 90 -68 90 -18 0 -30
-9 -43 -32z"/>
<path d="M8222 11168 c-7 -7 -12 -20 -12 -30 0 -11 -7 -32 -15 -48 -24 -47
-40 -170 -28 -219 9 -33 8 -48 -4 -71 -55 -112 101 -81 211 41 65 72 66 84 17
183 -59 119 -132 181 -169 144z"/>
<path d="M1982 11058 c-18 -18 -14 -88 9 -137 25 -55 83 -128 109 -136 17 -5
19 -13 14 -68 -5 -56 7 -124 30 -177 3 -9 1 -24 -6 -33 -11 -14 -22 -17 -54
-12 -38 7 -40 8 -36 40 5 44 -12 94 -53 155 l-34 50 25 25 c29 29 30 47 5 101
-33 74 -106 107 -146 67 -22 -21 -15 -85 14 -123 l20 -27 -25 -22 c-29 -26
-30 -54 -3 -125 23 -62 97 -151 133 -160 14 -3 26 -16 30 -30 3 -13 28 -44 56
-69 29 -26 50 -54 50 -65 0 -22 25 -52 43 -52 6 0 20 9 31 19 23 21 76 19 76
-4 0 -6 8 -19 19 -29 42 -38 82 21 89 134 5 83 -8 146 -38 182 -15 19 -22 21
-37 12 -10 -6 -23 -21 -29 -33 -10 -20 -12 -19 -25 16 -10 26 -12 53 -8 83 8
48 -5 161 -22 192 -6 10 -21 23 -33 28 -14 5 -25 20 -29 37 -8 40 -67 124
-107 151 -37 25 -51 27 -68 10z"/>
<path d="M8454 10925 c-19 -75 60 -224 136 -255 96 -40 74 134 -32 239 -49 50
-94 56 -104 16z"/>
<path d="M1866 10414 c-10 -9 -16 -33 -16 -61 0 -41 5 -51 44 -89 48 -48 82
-56 109 -26 36 40 8 128 -53 170 -39 26 -63 28 -84 6z"/>
<path d="M9976 4579 c-72 -57 -147 -227 -116 -264 7 -8 21 -15 31 -15 58 0
174 177 167 256 -3 33 -7 39 -29 42 -15 2 -37 -6 -53 -19z"/>
<path d="M9882 3924 c-14 -27 -1 -54 48 -98 73 -66 202 -113 235 -86 26 22 17
52 -30 97 -56 53 -132 92 -195 100 -40 5 -50 3 -58 -13z"/>
<path d="M10198 3741 c-64 -56 -125 -199 -107 -249 12 -33 44 -27 92 18 63 57
100 130 101 199 1 53 0 56 -26 59 -18 2 -37 -6 -60 -27z"/>
<path d="M10580 3639 c-61 -26 -77 -67 -36 -94 68 -45 227 -39 283 9 31 26 27
46 -13 73 -32 20 -194 29 -234 12z"/>
<path d="M10168 3456 c-22 -22 -12 -52 31 -95 58 -57 135 -94 200 -95 54 -1
56 0 59 26 4 37 -56 96 -140 137 -81 40 -129 49 -150 27z"/>
<path d="M9607 3415 c-21 -21 -21 -23 3 -63 23 -37 125 -107 179 -122 53 -15
101 -13 107 5 22 57 -117 168 -237 190 -27 5 -40 2 -52 -10z"/>
<path d="M10810 3379 c-53 -10 -95 -39 -95 -64 0 -36 50 -60 137 -64 122 -5
199 27 184 77 -14 43 -135 70 -226 51z"/>
<path d="M10243 3074 c-29 -13 -14 -61 32 -103 104 -96 255 -133 255 -63 0 71
-218 197 -287 166z"/>
<path d="M10687 2983 c-15 -14 -6 -53 18 -81 54 -64 197 -131 250 -118 69 17
-4 118 -128 177 -58 27 -125 38 -140 22z"/>
<path d="M9867 2763 c-15 -14 -6 -53 18 -81 54 -64 197 -131 250 -118 69 17
-4 118 -128 177 -58 27 -125 38 -140 22z"/>
<path d="M10450 2745 c-17 -21 -5 -48 44 -93 102 -94 256 -131 256 -62 0 80
-253 211 -300 155z"/>
<path d="M9630 2525 c-18 -22 -4 -50 48 -96 107 -94 252 -128 252 -59 0 80
-253 211 -300 155z"/>
<path d="M10518 2354 c-43 -43 68 -153 192 -190 63 -19 100 -8 100 28 0 29
-82 107 -145 137 -52 25 -134 39 -147 25z"/>
<path d="M10143 2219 c-31 -11 -36 -25 -19 -58 35 -67 172 -145 248 -139 59 4
63 32 12 88 -64 71 -190 128 -241 109z"/>
<path d="M9698 2134 c-14 -14 -8 -51 13 -78 30 -39 96 -80 167 -106 72 -26
112 -18 112 22 0 29 -82 107 -145 137 -52 25 -134 39 -147 25z"/>
<path d="M9681 1807 c-19 -23 -6 -50 45 -97 75 -69 205 -118 239 -90 25 21 17
49 -28 93 -81 81 -223 133 -256 94z"/>
<path d="M1558 1354 c-74 -53 -146 -190 -127 -241 34 -92 238 137 217 244 -5
28 -48 27 -90 -3z"/>
<path d="M1127 1303 c-18 -17 -5 -93 24 -152 58 -115 140 -175 168 -123 41 77
-136 331 -192 275z"/>
<path d="M596 1145 c-35 -35 30 -97 143 -135 143 -48 222 -5 132 72 -74 63
-237 101 -275 63z"/>
<path d="M13 1119 c-22 -22 -15 -47 24 -90 52 -58 141 -101 201 -97 44 3 47 5
50 34 6 56 -119 149 -216 160 -31 4 -51 2 -59 -7z"/>
<path d="M114 835 c-39 -59 14 -249 79 -285 27 -14 29 -14 49 10 52 63 -22
300 -94 300 -9 0 -25 -11 -34 -25z"/>
<path d="M520 845 c-40 -48 73 -266 151 -290 27 -9 49 12 49 46 0 69 -75 204
-133 240 -39 23 -51 24 -67 4z"/>
<path d="M1023 594 c-10 -27 6 -105 33 -154 36 -67 99 -130 129 -130 53 0 52
67 -1 173 -48 94 -142 160 -161 111z"/>
<path d="M532 298 c-51 -51 80 -298 158 -298 77 0 19 187 -86 280 -38 33 -53
37 -72 18z"/>
</g>
</svg>
